<svg version="1.1" viewBox="0.0 0.0 378.5721784776903 109.74015748031496" fill="none" stroke="none" stroke-linecap="square" stroke-miterlimit="10" xmlns:xlink="http://www.w3.org/1999/xlink" xmlns="http://www.w3.org/2000/svg"><clipPath id="p.0"><path d="m0 0l378.57217 0l0 109.74016l-378.57217 0l0 -109.74016z" clip-rule="nonzero"/></clipPath><g clip-path="url(#p.0)"><path fill="#000000" fill-opacity="0.0" d="m0 0l378.57217 0l0 109.74016l-378.57217 0z" fill-rule="evenodd"/><path fill="#000000" fill-opacity="0.0" d="m134.74278 -5.9803147l462.3307 0l0 122.803154l-462.3307 0z" fill-rule="evenodd"/><path fill="#212121" d="m157.28966 48.814682l0 36.125l-7.75 0l0 -45.078125l7.328125 0l0.421875 8.953125zm-1.59375 11.875l-3.578125 -0.125q0.046875 -4.625 1.203125 -8.5625q1.171875 -3.9375 3.453125 -6.84375q2.296875 -2.921875 5.71875 -4.515625q3.421875 -1.609375 7.921875 -1.609375q3.15625 0 5.828125 0.890625q2.671875 0.890625 4.625 2.8125q1.953125 1.90625 3.03125 4.90625q1.09375 3.0 1.09375 7.25l0 30.046875l-7.703125 0l0 -29.671875q0 -3.53125 -1.1875 -5.65625q-1.1875 -2.125 -3.359375 -3.109375q-2.171875 -0.984375 -5.078125 -0.984375q-3.421875 0 -5.71875 1.21875q-2.28125 1.203125 -3.65625 3.328125q-1.375 2.125 -1.984375 4.859375q-0.609375 2.71875 -0.609375 5.765625zm29.21875 -4.25l-5.171875 1.578125q0.046875 -3.703125 1.234375 -7.109375q1.1875 -3.421875 3.453125 -6.078125q2.265625 -2.671875 5.59375 -4.234375q3.34375 -1.5625 7.625 -1.5625q3.625 0 6.4375 0.953125q2.8125 0.953125 4.75 2.9375q1.9375 1.96875 2.9375 5.0625q1.0 3.078125 1.0 7.328125l0 29.625l-7.75 0l0 -29.703125q0 -3.796875 -1.1875 -5.890625q-1.1875 -2.109375 -3.328125 -2.96875q-2.140625 -0.859375 -5.109375 -0.859375q-2.53125 0 -4.5 0.875q-1.953125 0.875 -3.28125 2.40625q-1.328125 1.515625 -2.015625 3.484375q-0.6875 1.953125 -0.6875 4.15625zm58.235016 29.328125q-4.703125 0 -8.515625 -1.59375q-3.8125 -1.609375 -6.546875 -4.515625q-2.71875 -2.921875 -4.1875 -6.921875q-1.453125 -4.0 -1.453125 -8.75l0 -1.75q0 -5.5 1.625 -9.8125q1.625 -4.3125 4.40625 -7.3125q2.796875 -3.0 6.34375 -4.53125q3.546875 -1.546875 7.328125 -1.546875q4.84375 0 8.359375 1.671875q3.515625 1.65625 5.7656097 4.640625q2.25 2.96875 3.328125 7.0q1.09375 4.015625 1.09375 8.765625l0 3.453125l-33.67186 0l0 -6.296875l25.96875 0l0 -0.578125q-0.171875 -3.0 -1.234375 -5.828125q-1.0625 -2.84375 -3.359375 -4.671875q-2.28125 -1.828125 -6.25 -1.828125q-2.625 0 -4.828125 1.109375q-2.203125 1.09375 -3.796875 3.265625q-1.578125 2.15625 -2.453125 5.28125q-0.875 3.125 -0.875 7.21875l0 1.75q0 3.203125 0.890625 6.015625q0.90625 2.8125 2.625 4.9375q1.734375 2.125 4.203125 3.34375q2.484375 1.203125 5.65625 1.203125q4.078125 0 6.90625 -1.671875q2.84375 -1.671875 4.96875 -4.453125l4.6718597 3.703125q-1.46875 2.203125 -3.71875 4.203125q-2.2499847 2.0 -5.5156097 3.25q-3.265625 1.25 -7.734375 1.25zm53.12224 -8.53125l0 -23.21875q0 -2.65625 -1.0625 -4.640625q-1.0625 -1.984375 -3.1875 -3.0625q-2.125 -1.078125 -5.25 -1.078125q-2.90625 0 -5.09375 1.0q-2.1875 1.0 -3.421875 2.625q-1.234375 1.625 -1.234375 3.5l-7.703125 0q0 -2.421875 1.25 -4.796875q1.25 -2.375 3.59375 -4.3125q2.359375 -1.9375 5.671875 -3.078125q3.3125 -1.140625 7.40625 -1.140625q4.90625 0 8.671875 1.671875q3.78125 1.65625 5.921875 5.015625q2.15625 3.34375 2.15625 8.390625l0 21.0q0 2.25 0.390625 4.796875q0.390625 2.53125 1.1875 4.359375l0 0.671875l-8.046875 0q-0.578125 -1.328125 -0.921875 -3.5625q-0.328125 -2.234375 -0.328125 -4.140625zm1.34375 -19.625l0.078125 5.40625l-7.796875 0q-3.28125 0 -5.875 0.53125q-2.578125 0.515625 -4.328125 1.5625q-1.75 1.03125 -2.671875 2.59375q-0.90625 1.5625 -0.90625 3.65625q0 2.125 0.953125 3.875q0.953125 1.75 2.890625 2.765625q1.9375 1.015625 4.78125 1.015625q3.53125 0 6.234375 -1.5q2.71875 -1.5 4.3125 -3.65625q1.609375 -2.171875 1.734375 -4.21875l3.296875 3.71875q-0.296875 1.75 -1.59375 3.875q-1.28125 2.125 -3.4375 4.0625q-2.140625 1.9375 -5.078125 3.203125q-2.9375 1.265625 -6.59375 1.265625q-4.59375 0 -8.03125 -1.78125q-3.4375 -1.796875 -5.328125 -4.8125q-1.890625 -3.03125 -1.890625 -6.78125q0 -3.625 1.40625 -6.390625q1.421875 -2.765625 4.078125 -4.625q2.671875 -1.859375 6.421875 -2.8125q3.75 -0.953125 8.375 -0.953125l8.96875 0zm23.695068 -17.75l9.875 16.40625l10.0 -16.40625l9.046875 0l-14.75 22.25l15.203125 22.828125l-8.90625 0l-10.421875 -16.921875l-10.421875 16.921875l-8.953125 0l15.171875 -22.828125l-14.71875 -22.25l8.875 0z" fill-rule="nonzero"/><path fill="#4a6aa1" d="m7.8792644 104.59843l38.757355 -102.11024l15.573353 0l-38.757355 102.11024z" fill-rule="evenodd"/><path fill="#588feb" d="m49.259834 104.597115l38.7416 -102.11024l15.589111 0l-38.7416 102.11024z" fill-rule="evenodd"/><path fill="#588feb" d="m64.56693 104.597115l52.38842 -75.52756l9.627327 75.52756z" fill-rule="evenodd"/></g></svg>
