<svg version="1.1" viewBox="0.0 0.0 521.6876640419947 110.84251968503936" fill="none" stroke="none" stroke-linecap="square" stroke-miterlimit="10" xmlns:xlink="http://www.w3.org/1999/xlink" xmlns="http://www.w3.org/2000/svg"><clipPath id="p.0"><path d="m0 0l521.6877 0l0 110.84252l-521.6877 0l0 -110.84252z" clip-rule="nonzero"/></clipPath><g clip-path="url(#p.0)"><path fill="#000000" fill-opacity="0.0" d="m0 0l521.6877 0l0 110.84252l-521.6877 0z" fill-rule="evenodd"/><path fill="#000000" fill-opacity="0.0" d="m120.04462 0l462.3307 0l0 116.34646l-462.3307 0z" fill-rule="evenodd"/><path fill="#434343" d="m141.74774 51.924995l0 33.875l-7.265625 0l0 -42.265625l6.875 0l0.390625 8.390625zm-1.484375 11.140625l-3.359375 -0.125q0.03125 -4.328125 1.125 -8.015625q1.09375 -3.703125 3.234375 -6.4375q2.15625 -2.734375 5.359375 -4.234375q3.203125 -1.5 7.421875 -1.5q2.96875 0 5.46875 0.84375q2.5 0.828125 4.328125 2.625q1.84375 1.796875 2.859375 4.609375q1.015625 2.8125 1.015625 6.796875l0 28.171875l-7.21875 0l0 -27.8125q0 -3.328125 -1.125 -5.3125q-1.109375 -2.0 -3.140625 -2.90625q-2.03125 -0.921875 -4.765625 -0.921875q-3.203125 0 -5.359375 1.140625q-2.140625 1.125 -3.4375 3.125q-1.28125 1.984375 -1.84375 4.546875q-0.5625 2.546875 -0.5625 5.40625zm27.375 -3.984375l-4.84375 1.484375q0.046875 -3.484375 1.15625 -6.6875q1.109375 -3.203125 3.234375 -5.703125q2.140625 -2.5 5.265625 -3.953125q3.125 -1.46875 7.140625 -1.46875q3.40625 0 6.03125 0.90625q2.640625 0.890625 4.453125 2.75q1.828125 1.84375 2.765625 4.734375q0.9375 2.890625 0.9375 6.875l0 27.78125l-7.265625 0l0 -27.859375q0 -3.546875 -1.125 -5.515625q-1.109375 -1.984375 -3.125 -2.78125q-2.0 -0.796875 -4.78125 -0.796875q-2.375 0 -4.21875 0.828125q-1.828125 0.8125 -3.078125 2.234375q-1.25 1.421875 -1.90625 3.265625q-0.640625 1.828125 -0.640625 3.90625zm54.609375 27.5q-4.40625 0 -7.984375 -1.5q-3.578125 -1.515625 -6.140625 -4.25q-2.546875 -2.734375 -3.921875 -6.484375q-1.359375 -3.75 -1.359375 -8.203125l0 -1.640625q0 -5.15625 1.515625 -9.1875q1.53125 -4.046875 4.140625 -6.859375q2.625 -2.8125 5.9375 -4.25q3.328125 -1.453125 6.875 -1.453125q4.53125 0 7.828125 1.5625q3.3125 1.5625 5.421875 4.359375q2.109375 2.78125 3.125 6.5625q1.015625 3.765625 1.015625 8.21875l0 3.234375l-31.5625 0l0 -5.890625l24.328125 0l0 -0.546875q-0.15625 -2.8125 -1.15625 -5.46875q-0.984375 -2.65625 -3.140625 -4.375q-2.140625 -1.71875 -5.859375 -1.71875q-2.453125 0 -4.53125 1.03125q-2.0625 1.03125 -3.546875 3.0625q-1.484375 2.03125 -2.3125 4.96875q-0.8125 2.921875 -0.8125 6.75l0 1.640625q0 3.015625 0.828125 5.65625q0.84375 2.625 2.46875 4.625q1.625 1.984375 3.9375 3.125q2.328125 1.125 5.296875 1.125q3.828125 0 6.484375 -1.5625q2.65625 -1.5625 4.65625 -4.171875l4.375 3.46875q-1.375 2.078125 -3.484375 3.953125q-2.109375 1.875 -5.171875 3.046875q-3.0625 1.171875 -7.25 1.171875zm49.8125 -8.015625l0 -21.75q0 -2.5 -1.0 -4.359375q-1.0 -1.859375 -3.0 -2.875q-1.984375 -1.015625 -4.90625 -1.015625q-2.734375 0 -4.796875 0.9375q-2.046875 0.9375 -3.203125 2.46875q-1.140625 1.515625 -1.140625 3.28125l-7.234375 0q0 -2.265625 1.171875 -4.484375q1.171875 -2.234375 3.375 -4.046875q2.21875 -1.828125 5.3125 -2.890625q3.109375 -1.078125 6.9375 -1.078125q4.609375 0 8.140625 1.5625q3.546875 1.5625 5.546875 4.703125q2.015625 3.140625 2.015625 7.875l0 19.6875q0 2.109375 0.375 4.5q0.375 2.375 1.109375 4.09375l0 0.625l-7.53125 0q-0.546875 -1.25 -0.859375 -3.34375q-0.3125 -2.09375 -0.3125 -3.890625zm1.25 -18.390625l0.078125 5.078125l-7.3125 0q-3.078125 0 -5.5 0.484375q-2.421875 0.484375 -4.0625 1.46875q-1.640625 0.96875 -2.5 2.4375q-0.859375 1.46875 -0.859375 3.421875q0 1.984375 0.890625 3.625q0.90625 1.640625 2.71875 2.609375q1.8125 0.953125 4.46875 0.953125q3.328125 0 5.859375 -1.40625q2.546875 -1.40625 4.046875 -3.4375q1.5 -2.03125 1.625 -3.953125l3.078125 3.484375q-0.265625 1.640625 -1.484375 3.640625q-1.203125 1.984375 -3.21875 3.796875q-2.015625 1.8125 -4.765625 3.015625q-2.75 1.1875 -6.1875 1.1875q-4.296875 0 -7.53125 -1.671875q-3.21875 -1.6875 -5.0 -4.515625q-1.765625 -2.84375 -1.765625 -6.359375q0 -3.390625 1.328125 -5.984375q1.328125 -2.609375 3.828125 -4.34375q2.5 -1.734375 6.015625 -2.625q3.515625 -0.90625 7.84375 -0.90625l8.40625 0zm22.21875 -16.640625l9.265625 15.390625l9.375 -15.390625l8.46875 0l-13.828125 20.859375l14.265625 21.40625l-8.359375 0l-9.765625 -15.859375l-9.765625 15.859375l-8.40625 0l14.21875 -21.40625l-13.78125 -20.859375l8.3125 0zm79.265625 31.046875q0 -1.5625 -0.6875 -2.90625q-0.6875 -1.34375 -2.78125 -2.453125q-2.078125 -1.125 -6.265625 -1.9375q-3.515625 -0.75 -6.34375 -1.765625q-2.828125 -1.015625 -4.8125 -2.453125q-1.96875 -1.453125 -3.03125 -3.40625q-1.046875 -1.953125 -1.046875 -4.5625q0 -2.5 1.109375 -4.71875q1.125 -2.234375 3.171875 -3.953125q2.046875 -1.71875 4.9375 -2.6875q2.890625 -0.984375 6.453125 -0.984375q5.078125 0 8.671875 1.796875q3.59375 1.796875 5.5 4.78125q1.921875 2.984375 1.921875 6.625l-7.234375 0q0 -1.765625 -1.03125 -3.421875q-1.03125 -1.65625 -3.015625 -2.75q-1.96875 -1.09375 -4.8125 -1.09375q-3.015625 0 -4.875 0.921875q-1.84375 0.90625 -2.6875 2.3125q-0.84375 1.40625 -0.84375 2.96875q0 1.171875 0.40625 2.09375q0.421875 0.921875 1.46875 1.6875q1.0625 0.75 2.96875 1.421875q1.921875 0.65625 4.890625 1.328125q5.1875 1.171875 8.546875 2.8125q3.359375 1.640625 5.0 4.03125q1.640625 2.375 1.640625 5.765625q0 2.78125 -1.15625 5.09375q-1.140625 2.296875 -3.3125 3.953125q-2.171875 1.65625 -5.15625 2.578125q-2.984375 0.921875 -6.703125 0.921875q-5.578125 0 -9.453125 -1.984375q-3.859375 -2.0 -5.859375 -5.15625q-1.984375 -3.171875 -1.984375 -6.6875l7.265625 0q0.15625 2.96875 1.71875 4.703125q1.5625 1.734375 3.828125 2.46875q2.265625 0.71875 4.484375 0.71875q2.96875 0 4.984375 -0.78125q2.015625 -0.78125 3.0625 -2.140625q1.0625 -1.375 1.0625 -3.140625zm14.7578125 -9.453125l0 -0.890625q0 -4.578125 1.328125 -8.5q1.328125 -3.921875 3.828125 -6.828125q2.5 -2.921875 6.046875 -4.53125q3.5625 -1.625 7.984375 -1.625q4.453125 0 8.015625 1.625q3.578125 1.609375 6.09375 4.53125q2.53125 2.90625 3.859375 6.828125q1.328125 3.921875 1.328125 8.5l0 0.890625q0 4.578125 -1.328125 8.484375q-1.328125 3.90625 -3.859375 6.8125q-2.515625 2.90625 -6.046875 4.53125q-3.53125 1.625 -7.984375 1.625q-4.453125 0 -8.015625 -1.625q-3.546875 -1.625 -6.078125 -4.53125q-2.515625 -2.90625 -3.84375 -6.8125q-1.328125 -3.90625 -1.328125 -8.484375zm7.234375 -0.890625l0 0.890625q0 3.171875 0.734375 5.96875q0.75 2.78125 2.25 4.9375q1.5 2.140625 3.765625 3.375q2.265625 1.234375 5.28125 1.234375q2.96875 0 5.203125 -1.234375q2.25 -1.234375 3.734375 -3.375q1.484375 -2.15625 2.25 -4.9375q0.765625 -2.796875 0.765625 -5.96875l0 -0.890625q0 -3.125 -0.765625 -5.921875q-0.765625 -2.796875 -2.265625 -4.953125q-1.5 -2.171875 -3.75 -3.421875q-2.25 -1.25 -5.25 -1.25q-2.96875 0 -5.21875 1.25q-2.25 1.25 -3.75 3.421875q-1.5 2.15625 -2.25 4.953125q-0.734375 2.796875 -0.734375 5.921875zm51.09375 21.5625l-7.234375 0l0 -46.71875q0 -4.578125 1.65625 -7.71875q1.671875 -3.140625 4.796875 -4.765625q3.125 -1.625 7.421875 -1.625q1.25 0 2.515625 0.15625q1.265625 0.15625 2.484375 0.46875l-0.390625 5.90625q-0.828125 -0.203125 -1.859375 -0.28125q-1.03125 -0.078125 -2.046875 -0.078125q-2.3125 0 -3.96875 0.921875q-1.65625 0.921875 -2.515625 2.6875q-0.859375 1.75 -0.859375 4.328125l0 46.71875zm8.984375 -42.265625l0 5.546875l-22.890625 0l0 -5.546875l22.890625 0zm25.734375 0l0 5.546875l-22.84375 0l0 -5.546875l22.84375 0zm-15.109375 -10.28125l7.21875 0l0 42.078125q0 2.140625 0.65625 3.234375q0.671875 1.09375 1.71875 1.453125q1.0625 0.34375 2.28125 0.34375q0.890625 0 1.890625 -0.171875q1.0 -0.171875 1.5 -0.296875l0.046875 5.90625q-0.859375 0.28125 -2.25 0.53125q-1.390625 0.25 -3.34375 0.25q-2.65625 0 -4.890625 -1.046875q-2.21875 -1.0625 -3.53125 -3.546875q-1.296875 -2.484375 -1.296875 -6.703125l0 -42.03125z" fill-rule="nonzero"/><path fill="#afc8f1" d="m34.897636 97.18898l9.031498 -36.125988l63.598423 0l-9.031494 36.125988z" fill-rule="evenodd"/><path fill="#4a6aa1" d="m40.125984 76.95276l36.133957 -57.79528l19.236122 57.79528z" fill-rule="evenodd"/><path fill="#688dcb" d="m12.047244 76.95276l27.68504 -57.79528l27.685036 57.79528z" fill-rule="evenodd"/></g></svg>